<svg width="20" height="20" viewBox="0 0 20 20" fill="none" xmlns="http://www.w3.org/2000/svg">
<path d="M14.7071 0.5C17.3502 0.5 19.5 2.65013 19.5 5.29293V14.7071C19.5 17.3502 17.3502 19.5 14.7071 19.5H5.29293C2.65013 19.5 0.5 17.3502 0.5 14.7071V5.29293C0.5 2.65013 2.65013 0.5 5.29293 0.5H14.7071ZM14.7071 2.56779H5.29293C3.7903 2.56779 2.56779 3.7903 2.56779 5.29293V14.7071C2.56779 16.2097 3.7903 17.4326 5.29293 17.4326H14.7071C16.2097 17.4326 17.4326 16.21 17.4326 14.7071V5.29293C17.4326 3.7903 16.21 2.56779 14.7071 2.56779ZM10 5.10678C12.6984 5.10678 14.8936 7.30195 14.8936 10C14.8936 12.698 12.698 14.8936 10 14.8936C7.30195 14.8936 5.10678 12.6984 5.10678 10C5.10678 7.30195 7.30195 5.10678 10 5.10678ZM10 7.17456C8.44247 7.17456 7.17421 8.44212 7.17421 9.99965C7.17421 11.5579 8.44247 12.8258 10 12.8258C11.5582 12.8258 12.8254 11.5579 12.8254 9.99965C12.8254 8.44247 11.5579 7.17456 10 7.17456ZM15.0509 3.80297C15.6892 3.80297 16.2086 4.32238 16.2086 4.96073C16.2086 5.59909 15.6892 6.1185 15.0509 6.1185C14.4122 6.1185 13.8928 5.59909 13.8928 4.96073C13.8928 4.32238 14.4122 3.80297 15.0509 3.80297Z" fill="#5E626B"/>
</svg>
